<svg xmlns="http://www.w3.org/2000/svg" width="800" height="450" viewBox="0 0 800 450" role="img" aria-label="Stylized preview of the single-page HTML resume layout">
  <defs>
    <linearGradient id="headerGrad" x1="0%" y1="0%" x2="100%" y2="100%">
      <stop offset="0%" stop-color="#667eea"/>
      <stop offset="100%" stop-color="#764ba2"/>
    </linearGradient>
  </defs>
  <rect width="800" height="450" fill="#f8f9fa"/>
  <rect x="48" y="24" width="704" height="402" fill="#fff" stroke="#e0e0e0" stroke-width="1" rx="2"/>
  <rect x="48" y="24" width="704" height="96" fill="url(#headerGrad)" rx="2"/>
  <text x="400" y="68" text-anchor="middle" fill="#fff" font-family="Segoe UI, system-ui, sans-serif" font-size="20" font-weight="700">Your name</text>
  <text x="400" y="94" text-anchor="middle" fill="#fff" font-family="Segoe UI, system-ui, sans-serif" font-size="11" opacity="0.95">Headline Ę contact Ę links</text>
  <text x="72" y="148" fill="#667eea" font-family="Segoe UI, system-ui, sans-serif" font-size="11" font-weight="700">PROFESSIONAL SUMMARY</text>
  <rect x="72" y="158" width="656" height="6" fill="#ecf0f1" rx="1"/>
  <rect x="72" y="170" width="620" height="6" fill="#ecf0f1" rx="1"/>
  <rect x="72" y="182" width="640" height="6" fill="#ecf0f1" rx="1"/>
  <text x="72" y="218" fill="#667eea" font-family="Segoe UI, system-ui, sans-serif" font-size="11" font-weight="700">CORE TECHNICAL SKILLS</text>
  <rect x="72" y="228" width="320" height="40" fill="#f8f9fa" stroke="#667eea" stroke-width="0.5" rx="2"/>
  <rect x="408" y="228" width="320" height="40" fill="#f8f9fa" stroke="#667eea" stroke-width="0.5" rx="2"/>
  <text x="72" y="298" fill="#667eea" font-family="Segoe UI, system-ui, sans-serif" font-size="11" font-weight="700">EXPERIENCE</text>
  <rect x="72" y="308" width="200" height="8" fill="#2c3e50" rx="1"/>
  <rect x="72" y="324" width="656" height="5" fill="#ecf0f1" rx="1"/>
  <rect x="72" y="334" width="600" height="5" fill="#ecf0f1" rx="1"/>
  <text x="400" y="418" text-anchor="middle" fill="#95a5a6" font-family="Segoe UI, system-ui, sans-serif" font-size="10">Wireframe  open live preview for the real template</text>
</svg>
